<svg width="621" height="110" viewBox="0 0 621 110" fill="none" xmlns="http://www.w3.org/2000/svg">
<path d="M88.5119 0.53125H20.4258C9.14492 0.53125 0 9.67617 0 20.957V89.043C0 100.324 9.14492 109.469 20.4258 109.469H88.5119C99.7929 109.469 108.938 100.324 108.938 89.043V20.957C108.938 9.67617 99.7929 0.53125 88.5119 0.53125Z" fill="#3B82F6"/>
<path d="M88.5119 0.53125H20.4258C9.14492 0.53125 0 9.67617 0 20.957V89.043C0 100.324 9.14492 109.469 20.4258 109.469H88.5119C99.7929 109.469 108.938 100.324 108.938 89.043V20.957C108.938 9.67617 99.7929 0.53125 88.5119 0.53125Z" fill="url(#paint0_linear_1148_10)"/>
<path fill-rule="evenodd" clip-rule="evenodd" d="M61.8253 36.8242C63.4035 35.2473 65.9618 35.2478 67.5394 36.8253L82.859 52.1445C84.4361 53.7216 84.4361 56.278 82.859 57.8551L67.5394 73.1745C65.9619 74.752 63.4036 74.7526 61.8254 73.1756C60.2471 71.5987 60.2466 69.0415 61.8242 67.4639L74.2884 54.9998L61.8242 42.5359C60.2466 40.9584 60.2471 38.4012 61.8253 36.8242Z" fill="white"/>
<path fill-rule="evenodd" clip-rule="evenodd" d="M47.1124 36.8242C48.6906 38.4011 48.6911 40.9584 47.1135 42.5359L34.6495 54.9998L47.1136 67.4639C48.6911 69.0415 48.6906 71.5987 47.1124 73.1756C45.5341 74.7526 42.9759 74.752 41.3983 73.1745L26.0789 57.8551C24.5018 56.2779 24.5018 53.7216 26.079 52.1445L41.3983 36.8254C42.9759 35.2478 45.5342 35.2473 47.1124 36.8242Z" fill="white"/>
<path d="M168.348 90.0183C163.974 90.0183 159.941 89.2798 156.249 87.803C152.614 86.2693 149.461 84.1393 146.792 81.4128C144.122 78.6295 142.049 75.3918 140.572 71.6997C139.152 68.0076 138.442 63.9463 138.442 59.5157C138.442 54.9716 139.18 50.8534 140.657 47.1613C142.134 43.4124 144.207 40.2031 146.877 37.5334C149.603 34.807 152.784 32.7053 156.419 31.2284C160.112 29.7516 164.088 29.0132 168.348 29.0132C172.892 29.0132 177.01 29.8084 180.702 31.3988C184.394 32.9893 187.547 35.2614 190.16 38.2151C192.773 41.1119 194.704 44.5769 195.953 48.6098L181.98 52.9551C180.787 49.0926 178.998 46.3377 176.612 44.6905C174.284 42.9864 171.5 42.1344 168.263 42.1344C165.252 42.1344 162.611 42.8444 160.339 44.2644C158.067 45.6845 156.277 47.701 154.971 50.3138C153.721 52.9267 153.097 55.994 153.097 59.5157C153.097 63.0374 153.721 66.1047 154.971 68.7176C156.221 71.3305 157.981 73.3753 160.254 74.8522C162.526 76.2722 165.167 76.9823 168.177 76.9823C171.642 76.9823 174.568 76.0734 176.953 74.2558C179.339 72.4381 181.157 69.7116 182.406 66.0763L196.55 69.3992C195.414 73.6594 193.483 77.3515 190.756 80.4756C188.086 83.5429 184.82 85.9001 180.958 87.5474C177.152 89.1946 172.949 90.0183 168.348 90.0183Z" fill="white"/>
<path d="M226.537 90.0183C221.879 90.0183 217.705 89.0526 214.012 87.1214C210.32 85.1333 207.395 82.2932 205.237 78.6011C203.135 74.909 202.084 70.5921 202.084 65.6503C202.084 60.6517 203.163 56.3348 205.322 52.6995C207.48 49.0642 210.405 46.2525 214.098 44.2644C217.847 42.2764 222.05 41.2824 226.708 41.2824C231.422 41.2824 235.625 42.2764 239.318 44.2644C243.066 46.1957 246.02 49.0074 248.179 52.6995C250.337 56.3348 251.416 60.6517 251.416 65.6503C251.416 70.5921 250.309 74.909 248.093 78.6011C245.878 82.2932 242.896 85.1333 239.147 87.1214C235.398 89.0526 231.195 90.0183 226.537 90.0183ZM226.537 77.5787C228.298 77.5787 229.945 77.1527 231.479 76.3006C233.069 75.3918 234.347 74.057 235.313 72.2961C236.279 70.5353 236.761 68.32 236.761 65.6503C236.761 62.9238 236.279 60.7085 235.313 59.0045C234.347 57.2436 233.098 55.9372 231.564 55.0852C230.087 54.2332 228.468 53.8071 226.708 53.8071C224.947 53.8071 223.299 54.2332 221.766 55.0852C220.289 55.9372 219.068 57.2436 218.102 59.0045C217.193 60.7085 216.739 62.9238 216.739 65.6503C216.739 68.32 217.165 70.5353 218.017 72.2961C218.926 74.057 220.119 75.3918 221.595 76.3006C223.129 77.1527 224.776 77.5787 226.537 77.5787Z" fill="white"/>
<path d="M277.615 90.0183C273.468 90.0183 269.833 88.939 266.709 86.7806C263.642 84.6221 261.256 81.7252 259.552 78.0899C257.905 74.3978 257.081 70.2512 257.081 65.6503C257.081 61.1062 257.905 56.988 259.552 53.2959C261.256 49.6038 263.642 46.6785 266.709 44.5201C269.833 42.3616 273.468 41.2824 277.615 41.2824C281.25 41.2824 284.403 42.2764 287.072 44.2644C289.799 46.1957 291.702 48.9222 292.781 52.4439V26.3719H307.18V89.4218H300.108C297.836 89.4218 296.047 88.797 294.741 87.5474C293.434 86.2409 292.781 84.4517 292.781 82.1796V78.9419C291.702 82.4068 289.799 85.1333 287.072 87.1214C284.403 89.0526 281.25 90.0183 277.615 90.0183ZM282.301 77.4083C284.175 77.4083 285.908 76.9539 287.498 76.045C289.089 75.1362 290.367 73.8014 291.332 72.0405C292.298 70.2796 292.781 68.1496 292.781 65.6503C292.781 63.2078 292.298 61.1062 291.332 59.3453C290.367 57.5845 289.089 56.2212 287.498 55.2556C285.908 54.29 284.175 53.8071 282.301 53.8071C280.37 53.8071 278.609 54.29 277.018 55.2556C275.428 56.2212 274.15 57.5845 273.184 59.3453C272.275 61.1062 271.821 63.2078 271.821 65.6503C271.821 68.1496 272.275 70.2796 273.184 72.0405C274.15 73.8014 275.428 75.1362 277.018 76.045C278.666 76.9539 280.427 77.4083 282.301 77.4083Z" fill="white"/>
<path d="M340.981 90.0183C337.516 90.0183 334.193 89.4786 331.012 88.3994C327.888 87.3202 325.105 85.7581 322.662 83.7133C320.277 81.6116 318.374 79.0839 316.954 76.1302C315.591 73.1765 314.909 69.7968 314.909 65.9911C314.909 62.3558 315.562 59.0329 316.869 56.0224C318.232 53.0119 320.05 50.399 322.322 48.1838C324.65 45.9685 327.32 44.2644 330.331 43.0716C333.398 41.8788 336.636 41.2824 340.044 41.2824C342.827 41.2824 345.468 41.6516 347.968 42.39C350.524 43.1284 352.796 44.2076 354.784 45.6277C356.829 47.0477 358.419 48.7234 359.555 50.6546C360.748 52.5859 361.344 54.7444 361.344 57.13C361.344 60.1405 360.492 62.6398 358.788 64.6279C357.084 66.6159 354.841 68.178 352.057 69.314C349.331 70.4501 346.32 71.2737 343.026 71.7849C339.788 72.2393 336.579 72.4381 333.398 72.3813C333 72.3813 332.517 72.3813 331.949 72.3813C331.438 72.3245 330.955 72.2961 330.501 72.2961C330.047 72.2393 329.706 72.2109 329.479 72.2109C329.819 73.5173 330.529 74.7102 331.609 75.7894C332.745 76.8119 334.165 77.6355 335.869 78.2603C337.573 78.8851 339.334 79.1975 341.151 79.1975C342.969 79.1975 344.701 78.8851 346.349 78.2603C348.053 77.6355 349.586 76.8403 350.95 75.8746C352.313 74.909 353.477 73.8298 354.443 72.6369L363.645 79.8791C361.941 82.1512 359.868 84.0541 357.425 85.5877C354.983 87.0646 352.341 88.1722 349.501 88.9106C346.718 89.649 343.878 90.0183 340.981 90.0183ZM333.483 62.9238C335.017 62.9238 336.607 62.8386 338.254 62.6682C339.902 62.4978 341.407 62.2138 342.77 61.8162C344.19 61.3618 345.326 60.7654 346.178 60.0269C347.087 59.2317 347.542 58.2377 347.542 57.0448C347.542 56.0792 347.201 55.2272 346.519 54.4888C345.838 53.7503 344.929 53.1823 343.793 52.7847C342.657 52.3871 341.435 52.1883 340.129 52.1883C337.857 52.1883 335.869 52.7279 334.165 53.8071C332.461 54.8864 331.154 56.2496 330.245 57.8969C329.337 59.4873 328.825 61.1062 328.712 62.7534C329.223 62.8102 329.905 62.867 330.757 62.9238C331.665 62.9238 332.574 62.9238 333.483 62.9238Z" fill="white"/>
<path d="M411.287 51.0807C410.833 49.7174 410.208 48.4962 409.413 47.4169C408.617 46.2809 407.68 45.3437 406.601 44.6053C405.522 43.81 404.3 43.2136 402.937 42.816C401.574 42.3616 400.069 42.1344 398.422 42.1344C395.241 42.1344 392.486 42.8444 390.157 44.2644C387.828 45.6845 386.01 47.701 384.704 50.3138C383.397 52.9267 382.744 55.9656 382.744 59.4305C382.744 63.1226 383.454 66.3035 384.874 68.9732C386.351 71.6429 388.339 73.6878 390.838 75.1078C393.395 76.5278 396.32 77.2379 399.614 77.2379C401.375 77.2379 402.994 76.9539 404.471 76.3858C406.005 75.8178 407.368 75.0226 408.561 74.0002C409.753 72.9777 410.776 71.8417 411.628 70.5921C412.537 69.2856 413.218 67.9508 413.673 66.5875H395.951V55.426H427.39V89.4218H415.121V75.619L415.803 75.7042C415.689 76.6698 415.32 77.7775 414.695 79.0271C414.127 80.2768 413.332 81.5548 412.31 82.8612C411.287 84.1677 410.009 85.3605 408.475 86.4397C406.999 87.4622 405.266 88.3142 403.278 88.9958C401.29 89.6774 399.075 90.0183 396.632 90.0183C392.827 90.0183 389.191 89.2798 385.726 87.803C382.318 86.3261 379.279 84.2245 376.61 81.498C373.94 78.7715 371.838 75.5338 370.305 71.7849C368.828 68.036 368.089 63.9179 368.089 59.4305C368.089 54.9432 368.828 50.825 370.305 47.0761C371.838 43.3272 373.968 40.1179 376.695 37.4482C379.478 34.7217 382.716 32.6485 386.408 31.2284C390.1 29.7516 394.105 29.0132 398.422 29.0132C404.727 29.0132 410.265 30.4332 415.036 33.2733C419.807 36.0566 423.215 40.2883 425.26 45.9685L411.287 51.0807Z" fill="white"/>
<path d="M467.836 82.1796V41.8788H482.235V89.4218H475.078C472.806 89.4218 471.017 88.797 469.71 87.5474C468.461 86.2409 467.836 84.4517 467.836 82.1796ZM453.266 90.0183C449.404 90.0183 446.109 89.1662 443.383 87.4622C440.713 85.7581 438.668 83.3725 437.248 80.3052C435.828 77.2379 435.118 73.6594 435.118 69.5696V41.8788H449.432V67.4396C449.432 70.7341 450.256 73.2901 451.903 75.1078C453.607 76.9255 455.851 77.8343 458.634 77.8343C460.565 77.8343 462.212 77.3515 463.576 76.3858C464.939 75.4202 465.99 74.0854 466.728 72.3813C467.467 70.6773 467.836 68.746 467.836 66.5875L469.795 69.0584C469.625 73.9434 468.773 77.9195 467.239 80.9868C465.762 84.0541 463.803 86.3261 461.36 87.803C458.918 89.2798 456.22 90.0183 453.266 90.0183Z" fill="white"/>
<path d="M492.615 89.4218V41.8788H506.929V89.4218H492.615ZM499.857 36.8518C497.074 36.8518 494.802 36.0566 493.041 34.4661C491.28 32.8757 490.4 30.8876 490.4 28.502C490.4 26.0595 491.28 24.043 493.041 22.4526C494.802 20.8053 497.074 19.9817 499.857 19.9817C502.584 19.9817 504.827 20.8053 506.588 22.4526C508.349 24.043 509.23 26.0595 509.23 28.502C509.23 30.8876 508.349 32.8757 506.588 34.4661C504.827 36.0566 502.584 36.8518 499.857 36.8518Z" fill="white"/>
<path d="M534.97 90.0183C530.823 90.0183 527.188 88.939 524.064 86.7806C520.997 84.6221 518.611 81.7252 516.907 78.0899C515.26 74.3978 514.436 70.2512 514.436 65.6503C514.436 61.1062 515.26 56.988 516.907 53.2959C518.611 49.6038 520.997 46.6785 524.064 44.5201C527.188 42.3616 530.823 41.2824 534.97 41.2824C538.605 41.2824 541.758 42.2764 544.428 44.2644C547.154 46.1957 549.057 48.9222 550.136 52.4439V26.3719H564.535V89.4218H557.464C555.191 89.4218 553.402 88.797 552.096 87.5474C550.789 86.2409 550.136 84.4517 550.136 82.1796V78.9419C549.057 82.4068 547.154 85.1333 544.428 87.1214C541.758 89.0526 538.605 90.0183 534.97 90.0183ZM539.656 77.4083C541.531 77.4083 543.263 76.9539 544.854 76.045C546.444 75.1362 547.722 73.8014 548.688 72.0405C549.653 70.2796 550.136 68.1496 550.136 65.6503C550.136 63.2078 549.653 61.1062 548.688 59.3453C547.722 57.5845 546.444 56.2212 544.854 55.2556C543.263 54.29 541.531 53.8071 539.656 53.8071C537.725 53.8071 535.964 54.29 534.374 55.2556C532.783 56.2212 531.505 57.5845 530.539 59.3453C529.631 61.1062 529.176 63.2078 529.176 65.6503C529.176 68.1496 529.631 70.2796 530.539 72.0405C531.505 73.8014 532.783 75.1362 534.374 76.045C536.021 76.9539 537.782 77.4083 539.656 77.4083Z" fill="white"/>
<path d="M598.336 90.0183C594.871 90.0183 591.548 89.4786 588.367 88.3994C585.243 87.3202 582.46 85.7581 580.018 83.7133C577.632 81.6116 575.729 79.0839 574.309 76.1302C572.946 73.1765 572.264 69.7968 572.264 65.9911C572.264 62.3558 572.917 59.0329 574.224 56.0224C575.587 53.0119 577.405 50.399 579.677 48.1838C582.006 45.9685 584.675 44.2644 587.686 43.0716C590.753 41.8788 593.991 41.2824 597.399 41.2824C600.182 41.2824 602.824 41.6516 605.323 42.39C607.879 43.1284 610.151 44.2076 612.139 45.6277C614.184 47.0477 615.774 48.7234 616.91 50.6546C618.103 52.5859 618.7 54.7444 618.7 57.13C618.7 60.1405 617.848 62.6398 616.144 64.6279C614.439 66.6159 612.196 68.178 609.413 69.314C606.686 70.4501 603.676 71.2737 600.381 71.7849C597.143 72.2393 593.934 72.4381 590.753 72.3813C590.356 72.3813 589.873 72.3813 589.305 72.3813C588.793 72.3245 588.311 72.2961 587.856 72.2961C587.402 72.2393 587.061 72.2109 586.834 72.2109C587.175 73.5173 587.885 74.7102 588.964 75.7894C590.1 76.8119 591.52 77.6355 593.224 78.2603C594.928 78.8851 596.689 79.1975 598.507 79.1975C600.324 79.1975 602.057 78.8851 603.704 78.2603C605.408 77.6355 606.942 76.8403 608.305 75.8746C609.668 74.909 610.833 73.8298 611.798 72.6369L621 79.8791C619.296 82.1512 617.223 84.0541 614.78 85.5877C612.338 87.0646 609.697 88.1722 606.856 88.9106C604.073 89.649 601.233 90.0183 598.336 90.0183ZM590.838 62.9238C592.372 62.9238 593.962 62.8386 595.61 62.6682C597.257 62.4978 598.762 62.2138 600.125 61.8162C601.545 61.3618 602.682 60.7654 603.534 60.0269C604.442 59.2317 604.897 58.2377 604.897 57.0448C604.897 56.0792 604.556 55.2272 603.874 54.4888C603.193 53.7503 602.284 53.1823 601.148 52.7847C600.012 52.3871 598.791 52.1883 597.484 52.1883C595.212 52.1883 593.224 52.7279 591.52 53.8071C589.816 54.8864 588.509 56.2496 587.601 57.8969C586.692 59.4873 586.181 61.1062 586.067 62.7534C586.578 62.8102 587.26 62.867 588.112 62.9238C589.021 62.9238 589.929 62.9238 590.838 62.9238Z" fill="white"/>
<defs>
<linearGradient id="paint0_linear_1148_10" x1="54.4689" y1="109.469" x2="68.959" y2="2.49405" gradientUnits="userSpaceOnUse">
<stop stop-color="#38BDF8"/>
<stop offset="1" stop-color="#3B82F6"/>
</linearGradient>
</defs>
</svg>
